<svg xmlns="http://www.w3.org/2000/svg" viewBox="0 0 64 28" fill="none">
  <path
    d="M10 8c-3.2 0-5.5 2.4-5.5 5.2S6.8 18.4 10 18.4c1.2 0 2.2-.3 3-.9.5 1.8 2.2 3.1 4.2 3.1h19.6c2 0 3.7-1.3 4.2-3.1.8.6 1.8.9 3 .9 3.2 0 5.5-2.4 5.5-5.2S49.2 8 46 8c-1.2 0-2.2.3-3 .9C42.5 7.1 40.8 5.8 38.8 5.8H19.2c-2 0-3.7 1.3-4.2 3.1-.8-.6-1.8-.9-3-.9Z"
    stroke="#124c5f"
    stroke-width="2.2"
    stroke-linejoin="round"
  />
  <path d="M22 10.5v7M28 9.5v9M34 10.5v7" stroke="#124c5f" stroke-width="1.6" stroke-linecap="round" opacity=".55"/>
</svg>
